<svg width="220" height="46" viewBox="0 0 220 46" fill="none" xmlns="http://www.w3.org/2000/svg">
<g filter="url(#filter0_d_129_25)">
<path d="M200 15L210 25L200 35L190 25L200 15Z" fill="#CC00FF"/>
</g>
<g filter="url(#filter1_d_129_25)">
<path d="M38.512 35C38.128 35 37.7867 34.8827 37.488 34.648C37.1893 34.4133 36.976 34.0933 36.848 33.688L30.416 12.312C30.2027 11.608 30.2133 11.0533 30.448 10.648C30.704 10.2213 31.1093 10.008 31.664 10.008C32.0267 10.008 32.3573 10.1147 32.656 10.328C32.9547 10.52 33.168 10.8293 33.296 11.256L38.896 30.776H38.192L43.376 11.448C43.4613 11.128 43.6533 10.8613 43.952 10.648C44.2507 10.4347 44.592 10.328 44.976 10.328C45.3173 10.328 45.6373 10.424 45.936 10.616C46.256 10.7867 46.4587 11.0533 46.544 11.416L51.76 30.776H51.12L56.752 11.096C56.9653 10.3707 57.5093 10.008 58.384 10.008C58.9813 10.008 59.3653 10.2427 59.536 10.712C59.7067 11.16 59.7067 11.6933 59.536 12.312L53.104 33.656C52.9547 34.0613 52.7307 34.392 52.432 34.648C52.1547 34.8827 51.824 35 51.44 35C51.0347 35 50.6827 34.872 50.384 34.616C50.1067 34.36 49.904 34.0507 49.776 33.688L44.624 13.784H45.392L40.176 33.656C40.0267 34.0613 39.8027 34.392 39.504 34.648C39.2267 34.8827 38.896 35 38.512 35ZM66.676 35.128C65.1187 35.128 63.7213 34.744 62.484 33.976C61.2467 33.1867 60.2653 32.1307 59.54 30.808C58.836 29.464 58.484 27.9493 58.484 26.264C58.484 24.5787 58.868 23.064 59.636 21.72C60.4253 20.376 61.4813 19.32 62.804 18.552C64.148 17.7627 65.652 17.368 67.316 17.368C68.98 17.368 70.4733 17.7627 71.796 18.552C73.1187 19.32 74.164 20.376 74.932 21.72C75.7213 23.064 76.116 24.5787 76.116 26.264H74.868C74.868 27.9493 74.5053 29.464 73.78 30.808C73.076 32.1307 72.1053 33.1867 70.868 33.976C69.6307 34.744 68.2333 35.128 66.676 35.128ZM67.316 32.248C68.404 32.248 69.3747 31.992 70.228 31.48C71.0813 30.9467 71.7533 30.232 72.244 29.336C72.7347 28.4187 72.98 27.3947 72.98 26.264C72.98 25.112 72.7347 24.088 72.244 23.192C71.7533 22.2747 71.0813 21.56 70.228 21.048C69.3747 20.5147 68.404 20.248 67.316 20.248C66.2493 20.248 65.2787 20.5147 64.404 21.048C63.5507 21.56 62.868 22.2747 62.356 23.192C61.8653 24.088 61.62 25.112 61.62 26.264C61.62 27.3947 61.8653 28.4187 62.356 29.336C62.868 30.232 63.5507 30.9467 64.404 31.48C65.2787 31.992 66.2493 32.248 67.316 32.248ZM74.484 35.032C74.0147 35.032 73.62 34.8827 73.3 34.584C73.0013 34.264 72.852 33.8693 72.852 33.4V28.504L73.46 25.112L76.116 26.264V33.4C76.116 33.8693 75.956 34.264 75.636 34.584C75.3373 34.8827 74.9533 35.032 74.484 35.032ZM87.3418 35C86.2751 35 85.3151 34.7333 84.4618 34.2C83.6084 33.6453 82.9364 32.8987 82.4458 31.96C81.9551 31.0213 81.7098 29.9653 81.7098 28.792V13.528C81.7098 13.0587 81.8591 12.6747 82.1578 12.376C82.4564 12.0773 82.8404 11.928 83.3098 11.928C83.7791 11.928 84.1631 12.0773 84.4618 12.376C84.7604 12.6747 84.9098 13.0587 84.9098 13.528V28.792C84.9098 29.6453 85.1444 30.36 85.6138 30.936C86.0831 31.512 86.6591 31.8 87.3418 31.8H88.4298C88.8138 31.8 89.1338 31.9493 89.3898 32.248C89.6671 32.5467 89.8058 32.9307 89.8058 33.4C89.8058 33.8693 89.6244 34.2533 89.2618 34.552C88.9204 34.8507 88.4724 35 87.9178 35H87.3418ZM80.2378 20.888C79.7898 20.888 79.4271 20.76 79.1497 20.504C78.8724 20.248 78.7338 19.928 78.7338 19.544C78.7338 19.1173 78.8724 18.776 79.1497 18.52C79.4271 18.264 79.7898 18.136 80.2378 18.136H87.6298C88.0778 18.136 88.4404 18.264 88.7178 18.52C88.9951 18.776 89.1338 19.1173 89.1338 19.544C89.1338 19.928 88.9951 20.248 88.7178 20.504C88.4404 20.76 88.0778 20.888 87.6298 20.888H80.2378ZM101.754 35.128C100.047 35.128 98.5215 34.744 97.1775 33.976C95.8548 33.1867 94.8095 32.1307 94.0415 30.808C93.2948 29.464 92.9215 27.9493 92.9215 26.264C92.9215 24.536 93.2948 23 94.0415 21.656C94.7882 20.312 95.8122 19.2667 97.1135 18.52C98.4148 17.752 99.9082 17.368 101.594 17.368C102.852 17.368 104.004 17.6133 105.05 18.104C106.095 18.5733 107.034 19.288 107.866 20.248C108.164 20.5893 108.271 20.9413 108.186 21.304C108.1 21.6667 107.866 21.9867 107.482 22.264C107.183 22.4773 106.852 22.552 106.49 22.488C106.127 22.4027 105.796 22.2107 105.498 21.912C104.452 20.8027 103.151 20.248 101.594 20.248C100.506 20.248 99.5455 20.504 98.7135 21.016C97.8815 21.5067 97.2308 22.2 96.7615 23.096C96.2922 23.992 96.0575 25.048 96.0575 26.264C96.0575 27.416 96.2922 28.44 96.7615 29.336C97.2522 30.232 97.9242 30.9467 98.7775 31.48C99.6308 31.992 100.623 32.248 101.754 32.248C102.5 32.248 103.151 32.1627 103.706 31.992C104.282 31.8 104.804 31.512 105.274 31.128C105.615 30.8507 105.967 30.7013 106.33 30.68C106.692 30.6373 107.012 30.7333 107.29 30.968C107.652 31.2667 107.855 31.608 107.898 31.992C107.94 32.3547 107.812 32.6853 107.514 32.984C105.978 34.4133 104.058 35.128 101.754 35.128ZM114.668 28.632C114.199 28.632 113.804 28.4827 113.484 28.184C113.186 27.864 113.036 27.4693 113.036 27V11.64C113.036 11.1493 113.186 10.7547 113.484 10.456C113.804 10.1573 114.199 10.008 114.668 10.008C115.159 10.008 115.554 10.1573 115.852 10.456C116.151 10.7547 116.3 11.1493 116.3 11.64V27C116.3 27.4693 116.151 27.864 115.852 28.184C115.554 28.4827 115.159 28.632 114.668 28.632ZM127.82 35.032C127.351 35.032 126.956 34.8827 126.636 34.584C126.338 34.264 126.188 33.8693 126.188 33.4V25.528C126.188 24.312 125.964 23.32 125.516 22.552C125.068 21.784 124.46 21.2187 123.692 20.856C122.946 20.472 122.082 20.28 121.1 20.28C120.204 20.28 119.394 20.4613 118.668 20.824C117.943 21.1867 117.367 21.6773 116.94 22.296C116.514 22.8933 116.3 23.5867 116.3 24.376H114.284C114.284 23.032 114.604 21.8373 115.244 20.792C115.906 19.7253 116.802 18.8827 117.932 18.264C119.063 17.6453 120.332 17.336 121.74 17.336C123.212 17.336 124.524 17.656 125.676 18.296C126.85 18.9147 127.767 19.832 128.428 21.048C129.111 22.264 129.452 23.7573 129.452 25.528V33.4C129.452 33.8693 129.292 34.264 128.972 34.584C128.674 34.8827 128.29 35.032 127.82 35.032ZM114.668 35.032C114.199 35.032 113.804 34.8827 113.484 34.584C113.186 34.264 113.036 33.8693 113.036 33.4V19.128C113.036 18.6373 113.186 18.2427 113.484 17.944C113.804 17.6453 114.199 17.496 114.668 17.496C115.159 17.496 115.554 17.6453 115.852 17.944C116.151 18.2427 116.3 18.6373 116.3 19.128V33.4C116.3 33.8693 116.151 34.264 115.852 34.584C115.554 34.8827 115.159 35.032 114.668 35.032Z" fill="#CC00FF"/>
<path d="M134.848 35C134.379 35 133.984 34.84 133.664 34.52C133.344 34.2 133.184 33.8053 133.184 33.336V11.672C133.184 11.1813 133.344 10.7867 133.664 10.488C133.984 10.168 134.379 10.008 134.848 10.008H149.312C149.803 10.008 150.197 10.1573 150.496 10.456C150.795 10.7333 150.944 11.1067 150.944 11.576C150.944 12.024 150.795 12.3867 150.496 12.664C150.197 12.9413 149.803 13.08 149.312 13.08H136.512V20.856H145.696C146.187 20.856 146.581 21.0053 146.88 21.304C147.179 21.5813 147.328 21.944 147.328 22.392C147.328 22.84 147.179 23.2133 146.88 23.512C146.581 23.7893 146.187 23.928 145.696 23.928H136.512V33.336C136.512 33.8053 136.352 34.2 136.032 34.52C135.712 34.84 135.317 35 134.848 35ZM159.04 35C158.101 35 157.269 34.744 156.544 34.232C155.819 33.72 155.253 33.0267 154.848 32.152C154.443 31.256 154.24 30.232 154.24 29.08V11.608C154.24 11.1387 154.389 10.7547 154.688 10.456C154.987 10.1573 155.371 10.008 155.84 10.008C156.309 10.008 156.693 10.1573 156.992 10.456C157.291 10.7547 157.44 11.1387 157.44 11.608V29.08C157.44 29.8693 157.589 30.52 157.888 31.032C158.187 31.544 158.571 31.8 159.04 31.8H159.84C160.267 31.8 160.608 31.9493 160.864 32.248C161.141 32.5467 161.28 32.9307 161.28 33.4C161.28 33.8693 161.077 34.2533 160.672 34.552C160.267 34.8507 159.744 35 159.104 35H159.04ZM166.426 35C165.956 35 165.562 34.8507 165.242 34.552C164.943 34.232 164.794 33.8373 164.794 33.368V19.128C164.794 18.6373 164.943 18.2427 165.242 17.944C165.562 17.6453 165.956 17.496 166.426 17.496C166.916 17.496 167.311 17.6453 167.61 17.944C167.908 18.2427 168.058 18.6373 168.058 19.128V33.368C168.058 33.8373 167.908 34.232 167.61 34.552C167.311 34.8507 166.916 35 166.426 35ZM166.426 14.648C165.85 14.648 165.348 14.4453 164.922 14.04C164.516 13.6133 164.314 13.112 164.314 12.536C164.314 11.96 164.516 11.4693 164.922 11.064C165.348 10.6373 165.85 10.424 166.426 10.424C167.002 10.424 167.492 10.6373 167.898 11.064C168.324 11.4693 168.538 11.96 168.538 12.536C168.538 13.112 168.324 13.6133 167.898 14.04C167.492 14.4453 167.002 14.648 166.426 14.648ZM186.418 35C186.205 35 186.002 34.968 185.81 34.904C185.618 34.84 185.437 34.7013 185.266 34.488L179.666 27.768L178.514 26.616L172.946 20.024C172.669 19.6827 172.519 19.32 172.498 18.936C172.477 18.5307 172.583 18.1893 172.818 17.912C173.053 17.6347 173.405 17.496 173.874 17.496C174.386 17.496 174.791 17.6773 175.09 18.04L180.562 24.568L181.394 25.336L187.41 32.536C187.73 32.92 187.879 33.304 187.858 33.688C187.858 34.0507 187.719 34.36 187.442 34.616C187.186 34.872 186.845 35 186.418 35ZM174.194 35C173.767 35 173.426 34.872 173.17 34.616C172.935 34.3387 172.818 34.008 172.818 33.624C172.818 33.24 172.967 32.856 173.266 32.472L178.706 25.656L180.434 28.088L175.346 34.488C175.026 34.8293 174.642 35 174.194 35ZM182.098 26.776L179.89 24.888L185.042 18.04C185.213 17.8267 185.394 17.688 185.586 17.624C185.778 17.5387 185.991 17.496 186.226 17.496C186.695 17.496 187.047 17.6453 187.282 17.944C187.517 18.2213 187.623 18.5627 187.602 18.968C187.602 19.3733 187.453 19.768 187.154 20.152L182.098 26.776Z" fill="#FF00C7"/>
</g>
<g filter="url(#filter2_d_129_25)">
<path d="M20 14L30 24L20 34L10 24L20 14Z" fill="#FF00C7"/>
</g>
<defs>
<filter id="filter0_d_129_25" x="180" y="5" width="40" height="40" filterUnits="userSpaceOnUse" color-interpolation-filters="sRGB">
<feFlood flood-opacity="0" result="BackgroundImageFix"/>
<feColorMatrix in="SourceAlpha" type="matrix" values="0 0 0 0 0 0 0 0 0 0 0 0 0 0 0 0 0 0 127 0" result="hardAlpha"/>
<feOffset/>
<feGaussianBlur stdDeviation="5"/>
<feComposite in2="hardAlpha" operator="out"/>
<feColorMatrix type="matrix" values="0 0 0 0 0.98 0 0 0 0 0 0 0 0 0 1 0 0 0 0.6 0"/>
<feBlend mode="normal" in2="BackgroundImageFix" result="effect1_dropShadow_129_25"/>
<feBlend mode="normal" in="SourceGraphic" in2="effect1_dropShadow_129_25" result="shape"/>
</filter>
<filter id="filter1_d_129_25" x="20.0957" y="0.00799561" width="177.794" height="45.12" filterUnits="userSpaceOnUse" color-interpolation-filters="sRGB">
<feFlood flood-opacity="0" result="BackgroundImageFix"/>
<feColorMatrix in="SourceAlpha" type="matrix" values="0 0 0 0 0 0 0 0 0 0 0 0 0 0 0 0 0 0 127 0" result="hardAlpha"/>
<feOffset/>
<feGaussianBlur stdDeviation="5"/>
<feComposite in2="hardAlpha" operator="out"/>
<feColorMatrix type="matrix" values="0 0 0 0 0.98 0 0 0 0 0 0 0 0 0 1 0 0 0 0.6 0"/>
<feBlend mode="normal" in2="BackgroundImageFix" result="effect1_dropShadow_129_25"/>
<feBlend mode="normal" in="SourceGraphic" in2="effect1_dropShadow_129_25" result="shape"/>
</filter>
<filter id="filter2_d_129_25" x="0" y="4" width="40" height="40" filterUnits="userSpaceOnUse" color-interpolation-filters="sRGB">
<feFlood flood-opacity="0" result="BackgroundImageFix"/>
<feColorMatrix in="SourceAlpha" type="matrix" values="0 0 0 0 0 0 0 0 0 0 0 0 0 0 0 0 0 0 127 0" result="hardAlpha"/>
<feOffset/>
<feGaussianBlur stdDeviation="5"/>
<feComposite in2="hardAlpha" operator="out"/>
<feColorMatrix type="matrix" values="0 0 0 0 0.98 0 0 0 0 0 0 0 0 0 1 0 0 0 0.6 0"/>
<feBlend mode="normal" in2="BackgroundImageFix" result="effect1_dropShadow_129_25"/>
<feBlend mode="normal" in="SourceGraphic" in2="effect1_dropShadow_129_25" result="shape"/>
</filter>
</defs>
</svg>
