<svg width="557" height="245" viewBox="0 0 557 245" fill="none" xmlns="http://www.w3.org/2000/svg">
<path d="M0 31.5695L27.7457 8.85565C40.8993 -1.9125 60.4064 0.625021 70.3674 14.4V14.4C79.657 27.2464 97.4347 30.462 110.636 21.6834L120.355 15.2205C134.619 5.7349 153.236 5.94802 167.279 15.7577L207.165 43.619C224.731 55.8892 248.559 53.8398 263.771 38.7505V38.7505C279.405 23.2439 304.168 21.651 321.763 34.8902V34.8902C339.596 48.3084 364.715 46.5991 380.442 30.7651L395.1 16.008C404.721 6.32144 419.725 4.48472 431.399 11.5645L447.146 21.1147C462.661 30.5241 482.698 27.3902 494.599 13.6929V13.6929C505.014 1.70507 521.883 -2.36462 536.619 3.55514L557 11.7426V195C557 222.614 534.614 245 507 245H50C22.3858 245 0 222.614 0 195V31.5695Z" fill="#FF00C7"/>
</svg>
